<?xml version="1.0" encoding="UTF-8" standalone="no"?>
<svg width="367px" height="94px" viewBox="0 0 367 94" version="1.1" xmlns="http://www.w3.org/2000/svg" xmlns:xlink="http://www.w3.org/1999/xlink">
    <!-- Generator: Sketch 39.1 (31720) - http://www.bohemiancoding.com/sketch -->
    <title>LOGO/SAM_Main</title>
    <desc>Created with Sketch.</desc>
    <defs>
        <polygon id="path-1" points="0 93.1376 366.078 93.1376 366.078 -0.0004 0 -0.0004"></polygon>
    </defs>
    <g id="Symbols" stroke="none" stroke-width="1" fill="none" fill-rule="evenodd">
        <g id="STLYEGUIDE" transform="translate(-216.000000, -1084.000000)">
            <g id="LOGO/SAM_Main" transform="translate(216.000000, 1084.000000)">
                <path d="M6.5595,91.1798 C5.9045,91.1798 5.3145,91.0858 4.7955,90.8928 C4.2785,90.7018 3.8415,90.4198 3.4805,90.0368 C3.1205,89.6608 2.8445,89.1878 2.6515,88.6248 C2.4585,88.0588 2.3655,87.4048 2.3655,86.6638 C2.3655,85.9128 2.4685,85.2498 2.6795,84.6658 C2.8885,84.0788 3.1815,83.5928 3.5595,83.1928 C3.9365,82.7988 4.3835,82.4978 4.9095,82.2928 C5.4345,82.0828 6.0055,81.9758 6.6245,81.9758 C7.0345,81.9758 7.4535,82.0038 7.8775,82.0708 C8.3095,82.1328 8.7715,82.2428 9.2705,82.4008 L9.2705,80.4348 C8.8885,80.3038 8.4625,80.1988 7.9905,80.1248 C7.5215,80.0528 7.0215,80.0178 6.4965,80.0178 C5.4675,80.0248 4.5425,80.2028 3.7255,80.5468 C2.9095,80.8938 2.2325,81.3728 1.6875,81.9758 C1.1475,82.5778 0.7295,83.2938 0.4435,84.1198 C0.1545,84.9458 0.0085,85.8408 0.0085,86.8058 C0.0085,87.7418 0.1445,88.6008 0.4165,89.3838 C0.6845,90.1588 1.0905,90.8298 1.6255,91.3838 C2.1605,91.9408 2.8295,92.3708 3.6285,92.6778 C4.4335,92.9848 5.3555,93.1368 6.4105,93.1368 C6.9505,93.1368 7.4735,93.1038 7.9775,93.0318 C8.4765,92.9578 8.9435,92.8578 9.3795,92.7318 L9.3795,90.7368 C8.9505,90.8828 8.4925,90.9928 8.0015,91.0688 C7.5135,91.1418 7.0315,91.1798 6.5595,91.1798 L6.5595,91.1798 Z" id="Fill-1" fill="#000000"></path>
                <path d="M21.3193,81.8534 C20.7973,81.2734 20.1633,80.8214 19.4113,80.5054 C18.6563,80.1774 17.8013,80.0184 16.8363,80.0184 C15.8763,80.0184 15.0223,80.1774 14.2663,80.5054 C13.5133,80.8214 12.8763,81.2734 12.3593,81.8534 C11.8373,82.4364 11.4453,83.1274 11.1743,83.9264 C10.9063,84.7314 10.7723,85.6154 10.7723,86.5794 C10.7723,87.5404 10.9063,88.4234 11.1743,89.2324 C11.4453,90.0334 11.8373,90.7264 12.3593,91.3084 C12.8763,91.8834 13.5133,92.3344 14.2663,92.6564 C15.0223,92.9774 15.8763,93.1374 16.8363,93.1374 C17.8013,93.1374 18.6563,92.9774 19.4113,92.6564 C20.1633,92.3344 20.7973,91.8834 21.3193,91.3084 C21.8363,90.7264 22.2283,90.0334 22.4993,89.2324 C22.7683,88.4234 22.9053,87.5404 22.9053,86.5794 C22.9053,85.6154 22.7683,84.7314 22.4993,83.9264 C22.2283,83.1274 21.8363,82.4364 21.3193,81.8534 M20.2713,88.5954 C20.0843,89.1724 19.8273,89.6544 19.4973,90.0334 C19.1713,90.4144 18.7773,90.7014 18.3273,90.8924 C17.8753,91.0854 17.3783,91.1794 16.8363,91.1794 C16.2993,91.1794 15.8003,91.0854 15.3473,90.8924 C14.8953,90.7014 14.5073,90.4144 14.1733,90.0334 C13.8513,89.6544 13.5903,89.1724 13.4063,88.5954 C13.2203,88.0154 13.1273,87.3484 13.1273,86.5794 C13.1273,85.8064 13.2203,85.1384 13.4063,84.5624 C13.5903,83.9864 13.8513,83.5054 14.1733,83.1214 C14.5073,82.7364 14.8953,82.4484 15.3473,82.2604 C15.8003,82.0714 16.2993,81.9754 16.8363,81.9754 C17.3783,81.9754 17.8753,82.0714 18.3273,82.2604 C18.7773,82.4484 19.1713,82.7364 19.4973,83.1214 C19.8273,83.5054 20.0843,83.9864 20.2713,84.5624 C20.4563,85.1384 20.5503,85.8064 20.5503,86.5794 C20.5503,87.3484 20.4563,88.0154 20.2713,88.5954" id="Fill-3" fill="#000000"></path>
                <path d="M33.3809,85.8626 C33.3809,86.6116 33.4169,87.8146 33.4879,89.4536 L33.4349,89.4536 C32.8759,88.4536 32.1499,87.3056 31.2569,86.0156 L27.1649,80.1316 L24.7739,80.1316 L24.7739,92.7806 L27.0499,92.7806 L27.0499,87.0556 C27.0499,86.2036 27.0149,85.0026 26.9399,83.4536 L26.9949,83.4536 C27.7609,84.7776 28.4989,85.9496 29.2119,86.9596 L33.2709,92.7806 L35.6599,92.7806 L35.6599,80.1316 L33.3809,80.1316 L33.3809,85.8626 Z" id="Fill-5" fill="#000000"></path>
                <polygon id="Fill-7" fill="#000000" points="37.0147 82.0722 41.0337 82.0722 41.0337 92.7802 43.3137 92.7802 43.3137 82.0722 47.3237 82.0722 47.3237 80.1312 37.0147 80.1312"></polygon>
                <polygon id="Fill-9" fill="#000000" points="51.3267 87.2771 56.2977 87.2771 56.2977 85.3441 51.3267 85.3441 51.3267 82.0721 57.1157 82.0721 57.1157 80.1311 49.0517 80.1311 49.0517 92.7801 57.4497 92.7801 57.4497 90.8461 51.3267 90.8461"></polygon>
                <path d="M66.9211,86.1851 C66.5191,87.3241 66.1801,88.3931 65.9081,89.3891 L65.8521,89.3891 C65.5351,88.2371 65.2011,87.1561 64.8391,86.1601 L62.6891,80.1311 L59.5091,80.1311 L59.5091,92.7801 L61.7861,92.7801 L61.7861,86.3651 C61.7861,85.3581 61.7491,84.2691 61.6761,83.1011 L61.7591,83.1011 C61.8651,83.4591 61.9901,83.8651 62.1321,84.3141 C62.2751,84.7581 62.4231,85.2031 62.5791,85.6401 L65.1561,92.7801 L66.6251,92.7801 L69.2021,85.6401 C69.3551,85.2031 69.5031,84.7581 69.6491,84.3141 C69.7911,83.8651 69.9151,83.4591 70.0211,83.1011 L70.1031,83.1011 C70.0291,84.3441 69.9941,85.4351 69.9941,86.3751 L69.9941,92.7801 L72.2701,92.7801 L72.2701,80.1311 L69.0721,80.1311 L66.9211,86.1851 Z" id="Fill-11" fill="#000000"></path>
                <path d="M80.8346,80.4549 C80.4846,80.3489 80.0776,80.2689 79.6296,80.2139 C79.1816,80.1629 78.6546,80.1309 78.0526,80.1309 L74.4606,80.1309 L74.4606,92.7809 L76.7416,92.7809 L76.7416,87.8379 C76.9136,87.8559 77.0996,87.8679 77.2986,87.8739 C77.4976,87.8779 77.6996,87.8809 77.9026,87.8809 C78.7976,87.8809 79.5896,87.7939 80.2766,87.6069 C80.9646,87.4279 81.5466,87.1659 82.0256,86.8269 C82.5056,86.4879 82.8636,86.0749 83.1156,85.5849 C83.3616,85.0929 83.4866,84.5449 83.4866,83.9309 C83.4866,83.0389 83.2586,82.3009 82.7996,81.7219 C82.3376,81.1409 81.6826,80.7209 80.8346,80.4549 M80.9646,84.7229 C80.8546,84.9769 80.6706,85.1999 80.4166,85.3739 C80.1636,85.5539 79.8286,85.6929 79.4136,85.7969 C78.9966,85.8989 78.4806,85.9489 77.8646,85.9489 C77.6486,85.9489 77.4376,85.9439 77.2386,85.9369 C77.0366,85.9269 76.8696,85.9109 76.7416,85.8919 L76.7416,82.0719 L78.0226,82.0719 C78.4906,82.0719 78.8816,82.0899 79.2006,82.1269 C79.5196,82.1579 79.7886,82.2109 80.0086,82.2879 C80.4226,82.4439 80.7146,82.6519 80.8806,82.9199 C81.0506,83.1919 81.1306,83.5159 81.1306,83.8869 C81.1306,84.1909 81.0776,84.4689 80.9646,84.7229" id="Fill-13" fill="#000000"></path>
                <path d="M95.1606,81.8534 C94.6456,81.2734 94.0076,80.8214 93.2546,80.5054 C92.4996,80.1774 91.6426,80.0184 90.6846,80.0184 C89.7196,80.0184 88.8646,80.1774 88.1076,80.5054 C87.3586,80.8214 86.7216,81.2734 86.2036,81.8534 C85.6836,82.4364 85.2906,83.1274 85.0226,83.9264 C84.7486,84.7314 84.6156,85.6174 84.6156,86.5834 C84.6156,87.5404 84.7486,88.4234 85.0226,89.2324 C85.2906,90.0334 85.6836,90.7264 86.2036,91.3084 C86.7216,91.8834 87.3586,92.3344 88.1076,92.6564 C88.8646,92.9774 89.7196,93.1374 90.6846,93.1374 C91.6426,93.1374 92.4996,92.9774 93.2546,92.6564 C94.0076,92.3344 94.6456,91.8834 95.1606,91.3084 C95.6816,90.7264 96.0756,90.0334 96.3426,89.2324 C96.6136,88.4234 96.7486,87.5404 96.7486,86.5834 C96.7486,85.6174 96.6136,84.7314 96.3426,83.9264 C96.0756,83.1274 95.6816,82.4364 95.1606,81.8534 M94.1146,88.5954 C93.9326,89.1724 93.6696,89.6544 93.3446,90.0334 C93.0166,90.4144 92.6226,90.7014 92.1706,90.8924 C91.7216,91.0854 91.2226,91.1794 90.6846,91.1794 C90.1396,91.1794 89.6476,91.0854 89.1936,90.8924 C88.7396,90.7014 88.3516,90.4144 88.0236,90.0334 C87.6946,89.6544 87.4366,89.1724 87.2516,88.5954 C87.0636,88.0174 86.9706,87.3484 86.9706,86.5834 C86.9706,85.8064 87.0636,85.1404 87.2516,84.5624 C87.4366,83.9864 87.6946,83.5054 88.0236,83.1214 C88.3516,82.7364 88.7396,82.4484 89.1936,82.2604 C89.6476,82.0714 90.1396,81.9754 90.6846,81.9754 C91.2226,81.9754 91.7216,82.0714 92.1706,82.2604 C92.6226,82.4484 93.0166,82.7364 93.3446,83.1214 C93.6696,83.5054 93.9326,83.9864 94.1146,84.5624 C94.3016,85.1404 94.3946,85.8064 94.3946,86.5834 C94.3946,87.3484 94.3016,88.0174 94.1146,88.5954" id="Fill-15" fill="#000000"></path>
                <path d="M104.5342,87.5454 C105.5412,87.2474 106.2842,86.7944 106.7632,86.1784 C107.2452,85.5684 107.4862,84.8144 107.4862,83.9314 C107.4862,83.0904 107.2862,82.3924 106.8912,81.8314 C106.4922,81.2734 105.9292,80.8534 105.1982,80.5694 C104.8092,80.4204 104.3492,80.3134 103.8122,80.2454 C103.2712,80.1714 102.6852,80.1314 102.0632,80.1314 L98.2752,80.1314 L98.2752,92.7804 L100.5532,92.7804 L100.5532,87.8814 L102.1172,87.8814 L105.5032,92.7804 L108.2352,92.7804 L104.5342,87.5804 L104.5342,87.5454 Z M103.9212,85.6654 C103.6762,85.7574 103.3722,85.8284 103.0052,85.8774 C102.6432,85.9274 102.2032,85.9494 101.6782,85.9494 L100.5532,85.9494 L100.5532,82.0724 L102.1822,82.0724 C102.6662,82.0724 103.0752,82.0934 103.4022,82.1434 C103.7292,82.1904 104.0012,82.2654 104.2202,82.3674 C104.5542,82.5144 104.7892,82.7244 104.9312,82.9854 C105.0702,83.2424 105.1402,83.5474 105.1402,83.8864 C105.1402,84.2834 105.0522,84.6374 104.8732,84.9404 C104.7002,85.2444 104.3832,85.4874 103.9212,85.6654 L103.9212,85.6654 Z" id="Fill-17" fill="#000000"></path>
                <path d="M114.6006,80.1313 L109.6616,92.7803 L112.0876,92.7803 L113.3106,89.5613 L117.9976,89.5613 L119.2166,92.7803 L121.6256,92.7803 L116.6866,80.1313 L114.6006,80.1313 Z M117.2596,87.6173 L114.0446,87.6173 L114.4676,86.4953 C114.8136,85.6093 115.1996,84.4993 115.6336,83.1783 L115.6716,83.1783 C116.1136,84.4913 116.5016,85.5983 116.8386,86.4953 L117.2596,87.6173 Z" id="Fill-19" fill="#000000"></path>
                <path d="M129.3735,87.5454 C130.3795,87.2474 131.1225,86.7944 131.6015,86.1784 C132.0815,85.5684 132.3245,84.8144 132.3245,83.9314 C132.3245,83.0904 132.1245,82.3924 131.7275,81.8314 C131.3315,81.2734 130.7645,80.8534 130.0355,80.5694 C129.6495,80.4204 129.1855,80.3134 128.6495,80.2454 C128.1085,80.1714 127.5275,80.1314 126.8985,80.1314 L123.1125,80.1314 L123.1125,92.7804 L125.3905,92.7804 L125.3905,87.8814 L126.9565,87.8814 L130.3415,92.7804 L133.0755,92.7804 L129.3735,87.5804 L129.3735,87.5454 Z M128.7585,85.6654 C128.5125,85.7574 128.2065,85.8284 127.8455,85.8774 C127.4805,85.9274 127.0375,85.9494 126.5165,85.9494 L125.3905,85.9494 L125.3905,82.0724 L127.0215,82.0724 C127.5055,82.0724 127.9105,82.0934 128.2395,82.1434 C128.5675,82.1904 128.8385,82.2654 129.0575,82.3674 C129.3915,82.5144 129.6305,82.7244 129.7675,82.9854 C129.9075,83.2424 129.9795,83.5474 129.9795,83.8864 C129.9795,84.2834 129.8895,84.6374 129.7125,84.9404 C129.5345,85.2444 129.2175,85.4874 128.7585,85.6654 L128.7585,85.6654 Z" id="Fill-21" fill="#000000"></path>
                <polygon id="Fill-23" fill="#000000" points="138.3957 85.5818 138.3687 85.5818 135.0557 80.1308 132.5237 80.1308 137.2397 87.6858 137.2397 92.7808 139.5227 92.7808 139.5227 87.6858 144.2387 80.1308 141.7097 80.1308"></polygon>
                <path d="M154.9211,80.1313 L149.9791,92.7803 L152.4091,92.7803 L153.6291,89.5613 L158.3161,89.5613 L159.5351,92.7803 L161.9451,92.7803 L157.0071,80.1313 L154.9211,80.1313 Z M157.5821,87.6173 L154.3651,87.6173 L154.7851,86.4953 C155.1301,85.6093 155.5191,84.4993 155.9511,83.1783 L155.9911,83.1783 C156.4281,84.4913 156.8191,85.5983 157.1591,86.4953 L157.5821,87.6173 Z" id="Fill-25" fill="#000000"></path>
                <path d="M169.8187,87.5454 C170.8247,87.2474 171.5647,86.7944 172.0467,86.1784 C172.5277,85.5684 172.7687,84.8144 172.7687,83.9314 C172.7687,83.0904 172.5717,82.3924 172.1707,81.8314 C171.7767,81.2734 171.2117,80.8534 170.4827,80.5694 C170.0947,80.4204 169.6367,80.3134 169.0937,80.2454 C168.5537,80.1714 167.9727,80.1314 167.3427,80.1314 L163.5577,80.1314 L163.5577,92.7804 L165.8387,92.7804 L165.8387,87.8814 L167.4007,87.8814 L170.7887,92.7804 L173.5237,92.7804 L169.8187,87.5804 L169.8187,87.5454 Z M169.2077,85.6654 C168.9547,85.7574 168.6497,85.8284 168.2887,85.8774 C167.9247,85.9274 167.4827,85.9494 166.9607,85.9494 L165.8387,85.9494 L165.8387,82.0724 L167.4647,82.0724 C167.9477,82.0724 168.3557,82.0934 168.6867,82.1434 C169.0157,82.1904 169.2877,82.2654 169.5067,82.3674 C169.8367,82.5144 170.0777,82.7244 170.2167,82.9854 C170.3567,83.2424 170.4227,83.5474 170.4227,83.8864 C170.4227,84.2834 170.3367,84.6374 170.1577,84.9404 C169.9817,85.2444 169.6637,85.4874 169.2077,85.6654 L169.2077,85.6654 Z" id="Fill-27" fill="#000000"></path>
                <polygon id="Fill-29" fill="#000000" points="173.9875 82.0722 178.0085 82.0722 178.0085 92.7802 180.2825 92.7802 180.2825 82.0722 184.2945 82.0722 184.2945 80.1312 173.9875 80.1312"></polygon>
                <mask id="mask-2" fill="white">
                    <use xlink:href="#path-1"></use>
                </mask>
                <g id="Clip-32"></g>
                <polygon id="Fill-31" fill="#000000" mask="url(#mask-2)" points="191.962 92.7806 194.239 92.7806 194.239 80.1316 191.962 80.1316"></polygon>
                <path d="M205.2562,85.8626 C205.2562,86.6116 205.2942,87.8146 205.3652,89.4536 L205.3162,89.4536 C204.7512,88.4536 204.0302,87.3056 203.1372,86.0156 L199.0402,80.1316 L196.6492,80.1316 L196.6492,92.7806 L198.9282,92.7806 L198.9282,87.0556 C198.9282,86.2036 198.8932,85.0026 198.8172,83.4536 L198.8752,83.4536 C199.6372,84.7776 200.3722,85.9496 201.0872,86.9596 L205.1442,92.7806 L207.5372,92.7806 L207.5372,80.1316 L205.2562,80.1316 L205.2562,85.8626 Z" id="Fill-33" fill="#000000" mask="url(#mask-2)"></path>
                <path d="M224.6193,86.5126 C224.2443,86.2466 223.8203,86.0436 223.3363,85.8936 C222.8573,85.7486 222.3523,85.6166 221.8283,85.5006 C221.4923,85.4356 221.1733,85.3546 220.8753,85.2766 C220.5803,85.1926 220.3153,85.0786 220.0883,84.9456 C219.8573,84.8136 219.6763,84.6396 219.5393,84.4346 C219.4073,84.2256 219.3413,83.9636 219.3413,83.6406 C219.3413,83.0846 219.5433,82.6716 219.9533,82.3926 C220.3593,82.1186 220.9383,81.9756 221.6873,81.9756 C222.2063,81.9756 222.7643,82.0376 223.3593,82.1496 C223.9513,82.2696 224.5673,82.4556 225.2113,82.7116 L225.2113,80.7296 C224.7283,80.5196 224.1543,80.3506 223.4853,80.2186 C222.8143,80.0886 222.1473,80.0176 221.4833,80.0176 C220.8213,80.0176 220.2203,80.0996 219.6893,80.2556 C219.1623,80.4236 218.7003,80.6636 218.3073,80.9886 C217.9113,81.3126 217.6003,81.7216 217.3673,82.2156 C217.1423,82.7116 217.0283,83.2926 217.0283,83.9636 C217.0283,84.5656 217.1253,85.0646 217.3263,85.4716 C217.5223,85.8766 217.7883,86.2116 218.1243,86.4736 C218.4623,86.7326 218.8443,86.9436 219.2853,87.0846 C219.7263,87.2336 220.1873,87.3586 220.6763,87.4656 C221.0383,87.5406 221.3883,87.6186 221.7203,87.6966 C222.0513,87.7796 222.3513,87.8776 222.6163,88.0026 C222.8843,88.1336 223.0933,88.2926 223.2523,88.4926 C223.4053,88.6936 223.4853,88.9526 223.4853,89.2736 C223.4853,89.6386 223.3993,89.9446 223.2333,90.1936 C223.0633,90.4466 222.8443,90.6376 222.5673,90.7866 C222.2923,90.9306 221.9793,91.0296 221.6323,91.0926 C221.2833,91.1556 220.9313,91.1796 220.5703,91.1796 C219.9533,91.1796 219.3513,91.1226 218.7663,90.9966 C218.1833,90.8776 217.5843,90.6766 216.9673,90.4026 L216.9673,92.3626 C217.4033,92.6146 217.9443,92.8006 218.6023,92.9346 C219.2593,93.0736 219.9223,93.1376 220.6003,93.1376 C221.3753,93.1376 222.0873,93.0606 222.7383,92.9016 C223.3893,92.7456 223.9423,92.5036 224.3983,92.1766 C224.8523,91.8526 225.2063,91.4416 225.4563,90.9426 C225.7043,90.4506 225.8283,89.8566 225.8283,89.1776 C225.8283,88.5176 225.7183,87.9726 225.5023,87.5446 C225.2843,87.1206 224.9903,86.7806 224.6193,86.5126" id="Fill-34" fill="#000000" mask="url(#mask-2)"></path>
                <path d="M237.5214,81.8568 C237.0014,81.2738 236.3664,80.8218 235.6164,80.5048 C234.8604,80.1778 234.0034,80.0178 233.0414,80.0178 C232.0814,80.0178 231.2244,80.1778 230.4694,80.5048 C229.7144,80.8218 229.0794,81.2738 228.5614,81.8538 C228.0444,82.4368 227.6484,83.1278 227.3834,83.9268 C227.1124,84.7318 226.9774,85.6168 226.9774,86.5828 C226.9774,87.5398 227.1124,88.4238 227.3834,89.2318 C227.6484,90.0328 228.0444,90.7268 228.5614,91.3088 C229.0794,91.8838 229.7144,92.3338 230.4694,92.6558 C231.2244,92.9778 232.0814,93.1368 233.0414,93.1368 C234.0034,93.1368 234.8604,92.9778 235.6164,92.6558 C236.3664,92.3368 237.0014,91.8838 237.5214,91.3088 C238.0384,90.7268 238.4334,90.0328 238.7014,89.2318 C238.9744,88.4238 239.1104,87.5398 239.1104,86.5828 C239.1104,85.6168 238.9744,84.7318 238.7014,83.9268 C238.4334,83.1278 238.0384,82.4368 237.5214,81.8568 M236.4754,88.5988 C236.2894,89.1728 236.0324,89.6548 235.7034,90.0328 C235.3724,90.4138 234.9864,90.7018 234.5334,90.8928 C234.0804,91.0858 233.5834,91.1798 233.0414,91.1798 C232.5024,91.1798 232.0054,91.0858 231.5494,90.8928 C231.1054,90.7018 230.7094,90.4138 230.3824,90.0328 C230.0564,89.6548 229.7984,89.1728 229.6104,88.5948 C229.4224,88.0178 229.3324,87.3478 229.3324,86.5828 C229.3324,85.8058 229.4224,85.1398 229.6104,84.5628 C229.7984,83.9858 230.0564,83.5058 230.3824,83.1218 C230.7094,82.7368 231.1054,82.4478 231.5494,82.2608 C232.0054,82.0708 232.5024,81.9758 233.0414,81.9758 C233.5834,81.9758 234.0804,82.0708 234.5334,82.2608 C234.9864,82.4478 235.3724,82.7368 235.7034,83.1218 C236.0324,83.5058 236.2894,83.9858 236.4754,84.5628 C236.6614,85.1398 236.7564,85.8058 236.7564,86.5828 C236.7564,87.3478 236.6614,88.0178 236.4754,88.5988" id="Fill-35" fill="#000000" mask="url(#mask-2)"></path>
                <path d="M248.8354,87.4941 C248.8354,88.3931 248.7294,89.0941 248.5224,89.5941 C248.2814,90.1551 247.9414,90.5621 247.4854,90.8101 C247.0344,91.0561 246.5014,91.1801 245.8894,91.1801 C245.2724,91.1801 244.7394,91.0561 244.2864,90.8101 C243.8334,90.5621 243.4884,90.1551 243.2544,89.5941 C243.0414,89.0941 242.9364,88.3931 242.9364,87.4941 L242.9364,80.2531 L240.6584,80.2531 L240.6584,87.7021 C240.6584,88.2351 240.6854,88.7081 240.7464,89.1431 C240.8034,89.5681 240.9034,89.9621 241.0374,90.3101 C241.2074,90.7551 241.4314,91.1521 241.7094,91.4941 C241.9874,91.8451 242.3234,92.1411 242.7234,92.3861 C243.1204,92.6311 243.5794,92.8131 244.1014,92.9411 C244.6184,93.0771 245.2094,93.1371 245.8614,93.1371 C246.5084,93.1371 247.0974,93.0771 247.6254,92.9411 C248.1514,92.8131 248.6224,92.6311 249.0244,92.3861 C249.4334,92.1411 249.7774,91.8451 250.0594,91.4941 C250.3394,91.1521 250.5684,90.7551 250.7314,90.3101 C250.8694,89.9621 250.9654,89.5681 251.0274,89.1431 C251.0854,88.7081 251.1154,88.2351 251.1154,87.7021 L251.1154,80.2531 L248.8354,80.2531 L248.8354,87.4941 Z" id="Fill-36" fill="#000000" mask="url(#mask-2)"></path>
                <polygon id="Fill-37" fill="#000000" mask="url(#mask-2)" points="252.6703 82.0722 256.6933 82.0722 256.6933 92.7802 258.9723 92.7802 258.9723 82.0722 262.9813 82.0722 262.9813 80.1312 252.6703 80.1312"></polygon>
                <polygon id="Fill-38" fill="#000000" mask="url(#mask-2)" points="272.4663 85.3477 266.6993 85.3477 266.6993 80.1317 264.4173 80.1317 264.4173 92.7807 266.6993 92.7807 266.6993 87.2767 272.4663 87.2767 272.4663 92.7807 274.7463 92.7807 274.7463 80.1317 272.4663 80.1317"></polygon>
                <polygon id="Fill-39" fill="#000000" mask="url(#mask-2)" points="279.6656 87.2771 284.6326 87.2771 284.6326 85.3481 279.6656 85.3481 279.6656 82.0721 285.4486 82.0721 285.4486 80.1311 277.3796 80.1311 277.3796 92.7801 285.7866 92.7801 285.7866 90.8461 279.6656 90.8461"></polygon>
                <path d="M292.2676,80.1313 L287.3256,92.7803 L289.7556,92.7803 L290.9696,89.5613 L295.6596,89.5613 L296.8816,92.7803 L299.2886,92.7803 L294.3476,80.1313 L292.2676,80.1313 Z M294.9246,87.6173 L291.7056,87.6173 L292.1336,86.4953 C292.4716,85.6093 292.8616,84.4993 293.2986,83.1783 L293.3336,83.1783 C293.7736,84.4913 294.1636,85.5983 294.4986,86.4953 L294.9246,87.6173 Z" id="Fill-40" fill="#000000" mask="url(#mask-2)"></path>
                <path d="M307.8208,86.5126 C307.4468,86.2466 307.0218,86.0436 306.5428,85.8936 C306.0628,85.7486 305.5558,85.6166 305.0298,85.5006 C304.6938,85.4356 304.3768,85.3556 304.0768,85.2766 C303.7818,85.1926 303.5188,85.0786 303.2898,84.9456 C303.0588,84.8136 302.8758,84.6426 302.7408,84.4346 C302.6078,84.2256 302.5438,83.9636 302.5438,83.6406 C302.5438,83.0846 302.7448,82.6716 303.1518,82.3926 C303.5578,82.1186 304.1358,81.9756 304.8898,81.9756 C305.4108,81.9756 305.9648,82.0376 306.5588,82.1496 C307.1488,82.2696 307.7708,82.4556 308.4148,82.7116 L308.4148,80.7296 C307.9288,80.5196 307.3538,80.3506 306.6828,80.2186 C306.0148,80.0886 305.3518,80.0176 304.6838,80.0176 C304.0228,80.0176 303.4238,80.0996 302.8918,80.2556 C302.3648,80.4236 301.8998,80.6636 301.5058,80.9886 C301.1148,81.3126 300.8008,81.7216 300.5698,82.2156 C300.3408,82.7116 300.2298,83.2926 300.2298,83.9636 C300.2298,84.5656 300.3238,85.0646 300.5268,85.4756 C300.7238,85.8766 300.9898,86.2116 301.3238,86.4736 C301.6608,86.7326 302.0498,86.9436 302.4878,87.0846 C302.9248,87.2336 303.3908,87.3586 303.8748,87.4656 C304.2398,87.5406 304.5908,87.6186 304.9218,87.6966 C305.2518,87.7796 305.5518,87.8776 305.8188,88.0036 C306.0878,88.1336 306.2968,88.2926 306.4518,88.4926 C306.6068,88.6936 306.6828,88.9526 306.6828,89.2736 C306.6828,89.6386 306.5998,89.9446 306.4328,90.1936 C306.2658,90.4466 306.0438,90.6376 305.7698,90.7866 C305.4928,90.9306 305.1828,91.0296 304.8338,91.0926 C304.4848,91.1556 304.1298,91.1796 303.7708,91.1796 C303.1518,91.1796 302.5498,91.1226 301.9678,90.9966 C301.3868,90.8776 300.7858,90.6766 300.1718,90.4026 L300.1718,92.3626 C300.6058,92.6146 301.1478,92.8006 301.8068,92.9346 C302.4548,93.0736 303.1248,93.1376 303.7978,93.1376 C304.5758,93.1376 305.2878,93.0646 305.9428,92.9016 C306.5918,92.7456 307.1438,92.5036 307.5998,92.1766 C308.0578,91.8556 308.4088,91.4416 308.6568,90.9426 C308.9048,90.4506 309.0298,89.8566 309.0298,89.1776 C309.0298,88.5176 308.9208,87.9726 308.7068,87.5446 C308.4878,87.1206 308.1908,86.7806 307.8208,86.5126" id="Fill-41" fill="#000000" mask="url(#mask-2)"></path>
                <polygon id="Fill-42" fill="#000000" mask="url(#mask-2)" points="309.6882 82.0722 313.7132 82.0722 313.7132 92.7802 315.9922 92.7802 315.9922 82.0722 319.3532 82.0722 319.3532 80.1312 309.6882 80.1312"></polygon>
                <path d="M330.8309,80.1313 L325.8919,92.7803 L328.3149,92.7803 L329.5359,89.5613 L334.2259,89.5613 L335.4409,92.7803 L337.8549,92.7803 L332.9159,80.1313 L330.8309,80.1313 Z M333.4929,87.6173 L330.2699,87.6173 L330.6979,86.4953 C331.0399,85.6093 331.4269,84.4993 331.8639,83.1783 L331.8999,83.1783 C332.3399,84.4913 332.7269,85.5983 333.0639,86.4953 L333.4929,87.6173 Z" id="Fill-43" fill="#000000" mask="url(#mask-2)"></path>
                <path d="M346.8804,86.5126 C346.5104,86.2466 346.0814,86.0436 345.6014,85.8936 C345.1204,85.7486 344.6114,85.6166 344.0884,85.5006 C343.7524,85.4356 343.4364,85.3556 343.1394,85.2766 C342.8414,85.1926 342.5734,85.0786 342.3474,84.9456 C342.1204,84.8136 341.9354,84.6426 341.8044,84.4346 C341.6684,84.2256 341.6024,83.9636 341.6024,83.6406 C341.6024,83.0846 341.8084,82.6716 342.2124,82.3926 C342.6184,82.1186 343.1974,81.9756 343.9504,81.9756 C344.4694,81.9756 345.0254,82.0376 345.6184,82.1496 C346.2114,82.2696 346.8274,82.4556 347.4784,82.7116 L347.4784,80.7296 C346.9914,80.5196 346.4124,80.3506 345.7424,80.2186 C345.0724,80.0886 344.4094,80.0176 343.7464,80.0176 C343.0794,80.0176 342.4824,80.0996 341.9544,80.2556 C341.4204,80.4236 340.9604,80.6636 340.5644,80.9886 C340.1754,81.3126 339.8624,81.7216 339.6334,82.2156 C339.4004,82.7116 339.2844,83.2926 339.2844,83.9636 C339.2844,84.5656 339.3864,85.0646 339.5834,85.4756 C339.7844,85.8766 340.0524,86.2116 340.3814,86.4736 C340.7174,86.7326 341.1074,86.9436 341.5474,87.0846 C341.9884,87.2336 342.4494,87.3586 342.9344,87.4656 C343.2994,87.5406 343.6504,87.6186 343.9834,87.6966 C344.3134,87.7796 344.6114,87.8776 344.8794,88.0036 C345.1474,88.1336 345.3564,88.2926 345.5094,88.4926 C345.6664,88.6936 345.7424,88.9506 345.7424,89.2736 C345.7424,89.6386 345.6584,89.9446 345.4914,90.1936 C345.3264,90.4466 345.1034,90.6376 344.8264,90.7866 C344.5494,90.9306 344.2394,91.0296 343.8934,91.0926 C343.5454,91.1556 343.1914,91.1796 342.8324,91.1796 C342.2124,91.1796 341.6084,91.1226 341.0264,90.9966 C340.4414,90.8776 339.8454,90.6766 339.2314,90.4026 L339.2314,92.3626 C339.6664,92.6146 340.2094,92.8006 340.8614,92.9346 C341.5204,93.0736 342.1834,93.1376 342.8594,93.1376 C343.6384,93.1376 344.3464,93.0646 345.0014,92.9016 C345.6484,92.7456 346.2064,92.5036 346.6604,92.1766 C347.1144,91.8556 347.4714,91.4396 347.7154,90.9426 C347.9684,90.4506 348.0894,89.8566 348.0894,89.1776 C348.0894,88.5166 347.9794,87.9726 347.7624,87.5446 C347.5454,87.1206 347.2504,86.7806 346.8804,86.5126" id="Fill-44" fill="#000000" mask="url(#mask-2)"></path>
                <polygon id="Fill-45" fill="#000000" mask="url(#mask-2)" points="349.962 92.7806 352.238 92.7806 352.238 80.1316 349.962 80.1316"></polygon>
                <path d="M358.9509,80.1313 L354.0079,92.7803 L356.4369,92.7803 L357.6579,89.5613 L362.3449,89.5613 L363.5649,92.7803 L365.9739,92.7803 L361.0319,80.1313 L358.9509,80.1313 Z M361.6099,87.6173 L358.3929,87.6173 L358.8179,86.4953 C359.1569,85.6093 359.5469,84.4993 359.9819,83.1783 L360.0179,83.1783 C360.4579,84.4913 360.8439,85.5983 361.1829,86.4953 L361.6099,87.6173 Z" id="Fill-46" fill="#000000" mask="url(#mask-2)"></path>
                <path d="M103.4015,44.5783 C98.1985,44.5783 96.3425,47.3963 96.3425,50.0343 C96.3425,55.4753 102.0635,55.7503 103.2075,55.7503 C106.2935,55.7503 109.8895,54.3023 109.8895,50.2153 C109.8895,46.7943 107.3435,44.5783 103.4015,44.5783" id="Fill-47" fill="#000000" mask="url(#mask-2)"></path>
                <path d="M123.3559,44.5783 C118.4479,44.5783 116.2089,47.4763 116.2089,50.1653 C116.2089,52.8563 118.4479,55.7503 123.3559,55.7503 C128.2679,55.7503 130.5029,52.8563 130.5029,50.1653 C130.5029,47.4763 128.2679,44.5783 123.3559,44.5783" id="Fill-48" fill="#000000" mask="url(#mask-2)"></path>
                <path d="M171.6858,52.9218 C171.6858,54.3058 173.3198,54.5968 174.6808,54.5968 C175.2718,54.5968 180.4388,54.5038 180.4388,51.2958 L180.4388,50.6388 C179.2688,50.9538 177.8678,51.0848 175.2918,51.3288 C171.6858,51.6658 171.6858,52.3588 171.6858,52.9218" id="Fill-49" fill="#000000" mask="url(#mask-2)"></path>
                <path d="M79.7018,50.904 C76.0458,51.122 75.5508,52.187 75.5508,53.204 C75.5508,54.896 77.1518,55.75 80.3008,55.75 C83.0998,55.75 87.2638,54.709 87.2638,51.846 L87.2638,50.19 C86.7088,50.401 85.9838,50.539 85.1458,50.588 L79.7018,50.904 Z" id="Fill-50" fill="#000000" mask="url(#mask-2)"></path>
                <path d="M355.599,0.422 C349.65,0.422 346.602,2.374 343.6,5.324 C341.078,1.476 337.454,0.422 333.508,0.422 C328.085,0.422 324.713,2.691 322.031,5.324 L321.923,5.324 L321.923,1.159 L311.079,1.159 L311.079,19.289 L311.079,28.805 L307.239,28.805 C306.696,27.591 306.528,26.495 306.528,24.524 L306.528,19.289 L306.528,10.104 C306.528,2.103 298.736,0.422 288.373,0.422 C279.627,0.422 271.572,1.632 270.522,10.104 L281.684,10.104 C282.209,7.685 284.206,6.528 288.312,6.528 C293.21,6.528 295.369,7.577 295.369,9.585 C295.369,11.051 294.888,11.686 291.995,11.9 L280.9,12.632 C274.107,13.084 269.964,14.814 268.873,19.289 C268.681,20.085 268.577,20.973 268.577,21.949 C268.577,25.046 269.887,27.33 272.427,28.805 L259.337,28.805 C262.937,27.192 264.814,24.592 264.814,20.944 C264.814,20.37 264.778,19.81 264.683,19.295 L264.687,19.295 L264.683,19.289 C263.972,14.891 260.21,12.915 253.337,12.161 L243.706,11.109 C240.868,10.79 240.125,10.003 240.125,9.111 C240.125,7.165 242.024,6.423 245.231,6.423 C246.656,6.423 248.129,6.579 249.241,7.057 C250.337,7.474 251.129,8.266 251.231,9.477 L263.76,9.477 C263.135,1.368 253.55,0 245.97,0 C235.295,0 228.651,2.42 228.651,10.164 C228.651,15.004 231.978,17.319 238.496,18.1 L248.206,19.289 L248.447,19.317 C251.186,19.63 252.286,20.057 252.286,21.58 C252.286,23.635 249.657,24.105 247.177,24.105 C244.757,24.105 243.237,23.788 242.23,23.211 C241.236,22.687 240.812,21.842 240.651,20.791 L227.709,20.791 C227.833,24.87 230.283,27.339 233.663,28.805 L0,28.805 L0,71.299 L366.078,71.299 L366.078,7.858 C366.078,4.548 362.745,0.422 355.599,0.422 L355.599,0.422 Z M295.98,28.805 L293.282,28.805 C294.161,28.334 294.961,27.747 295.697,27.05 C295.733,27.578 295.82,28.198 295.98,28.805 L295.98,28.805 Z M280.894,19.289 C281.38,18.609 282.269,18.214 283.644,18.06 L291.176,17.155 C293.229,16.894 294.599,16.634 295.43,16.373 L295.43,18.1 C295.43,18.517 295.397,18.913 295.317,19.289 C294.655,22.484 291.182,24.422 285.437,24.422 C282.438,24.422 280.442,23.161 280.442,20.944 C280.442,20.276 280.588,19.717 280.894,19.289 L280.894,19.289 Z M18.419,57.805 C11.772,57.805 10.196,55.035 10.046,52.717 L10.008,52.179 L12.432,52.179 L12.488,52.614 C12.665,53.867 12.927,55.75 18.794,55.75 C23.621,55.75 24.175,54.348 24.175,53.293 C24.175,52.885 24.175,51.653 21.387,51.353 L15.711,50.718 C12.55,50.379 10.735,48.966 10.735,46.832 C10.735,46.113 11.086,42.52 18.007,42.52 C23.097,42.52 25.713,44.096 26.005,47.336 L26.058,47.886 L23.596,47.886 L23.556,47.427 C23.405,45.949 22.625,44.578 17.944,44.578 C14.924,44.578 13.19,45.372 13.19,46.756 C13.19,47.392 13.479,48.27 15.986,48.535 L21.12,49.108 C23.491,49.38 26.634,50.104 26.634,53.293 C26.634,55.35 25.207,57.805 18.419,57.805 L18.419,57.805 Z M28.508,57.391 L30.977,57.391 L30.977,42.942 L28.508,42.942 L28.508,57.391 Z M28.508,41.429 L30.977,41.429 L30.977,37.639 L28.508,37.639 L28.508,41.429 Z M50.443,57.391 L47.984,57.391 L47.984,48.642 C47.984,46.533 47.322,44.578 42.512,44.578 C37.834,44.578 36.173,46.982 36.173,49.034 L36.173,57.391 L33.72,57.391 L33.72,42.942 L36.173,42.942 L36.173,44.778 C37.275,43.677 39.223,42.52 42.538,42.52 C50.443,42.52 50.443,46.93 50.443,48.587 L50.443,57.391 Z M71.125,56.169 C71.125,60.837 68.078,63.107 61.801,63.107 C58.064,63.107 53.679,62.545 52.965,58.171 L52.866,57.587 L55.333,57.587 L55.399,58.009 C55.617,59.31 56.515,61.044 61.801,61.044 C67.957,61.044 68.666,58.292 68.666,56.222 L68.666,54.792 C67.105,56.353 64.677,57.17 61.555,57.17 C54.725,57.17 52.293,53.336 52.293,49.744 C52.293,46.385 54.725,42.464 61.582,42.464 C64.771,42.464 67.143,43.228 68.666,44.732 L68.666,42.886 L71.125,42.886 L71.125,56.169 Z M92.205,57.308 L91.845,57.416 C91.343,57.567 90.685,57.65 89.937,57.65 C88.067,57.65 87.608,56.704 87.488,55.482 C85.924,57.009 83.442,57.805 80.21,57.805 C74.328,57.805 73.091,55.303 73.091,53.204 C73.091,51.363 74.23,49.111 79.649,48.851 L85.278,48.534 C86.939,48.427 87.264,48.308 87.264,47.124 C87.264,45.864 86.609,44.578 81.777,44.578 C77.596,44.578 76.637,45.624 76.262,47.681 L76.186,48.097 L73.735,48.097 L73.828,47.516 C74.47,43.374 77.492,42.52 81.818,42.52 C85.497,42.52 89.716,43.025 89.716,46.965 L89.716,54.491 C89.716,55.592 89.756,55.592 90.286,55.592 C90.685,55.592 91.107,55.53 91.566,55.396 L92.205,55.221 L92.205,57.308 Z M103.242,57.805 C99.719,57.805 97.629,56.432 96.533,55.347 L96.533,62.687 L94.079,62.687 L94.079,42.942 L96.533,42.942 L96.533,44.887 C97.77,43.602 99.961,42.52 103.242,42.52 C109.529,42.52 112.342,46.372 112.342,50.19 C112.342,54.673 108.603,57.805 103.242,57.805 L103.242,57.805 Z M123.356,57.805 C117.051,57.805 113.753,53.961 113.753,50.166 C113.753,46.365 117.051,42.52 123.356,42.52 C129.665,42.52 132.964,46.365 132.964,50.166 C132.964,53.961 129.665,57.805 123.356,57.805 L123.356,57.805 Z M145.173,45.07 L144.524,44.874 C144.243,44.788 143.897,44.738 142.991,44.738 C139.017,44.738 137.234,47.184 137.234,49.611 L137.234,57.391 L134.778,57.391 L134.778,42.942 L137.234,42.942 L137.234,44.989 C138.594,43.404 140.775,42.52 143.47,42.52 C143.958,42.52 144.313,42.583 144.786,42.696 L145.173,42.786 L145.173,45.07 Z M155.106,55.75 C159.471,55.75 160.796,53.681 161.371,52.517 L163.931,52.517 L163.895,52.607 C162.491,56.104 159.566,57.805 154.953,57.805 C149.201,57.805 145.478,54.765 145.478,50.061 C145.478,47.452 147.466,42.52 154.983,42.52 C160.616,42.52 164.304,45.624 164.365,50.423 L164.375,50.932 L147.971,50.932 C148.319,53.92 151.005,55.75 155.106,55.75 L155.106,55.75 Z M188.162,57.392 L187.277,57.534 C186.594,57.65 185.819,57.781 184.572,57.781 C182.339,57.781 181.45,57.045 181.051,56.28 C179.752,57.101 177.451,57.912 173.449,57.912 C168.876,57.912 166.15,56.094 166.15,53.054 C166.15,48.77 171.304,48.378 174.078,48.167 C179.907,47.701 180.536,47.504 180.536,46.911 C180.536,45.92 179.116,45.417 176.319,45.417 C173.743,45.417 172.374,46.042 172.25,47.278 L172.235,47.44 L166.949,47.44 L167.002,47.144 C167.803,42.531 172.403,41.942 176.319,41.942 C184.667,41.942 185.792,44.559 185.792,47.124 L185.792,53.709 C185.792,53.88 185.792,53.989 186.239,53.989 C186.664,53.989 187.285,53.961 187.581,53.916 L188.162,53.826 L188.162,57.392 Z M203.676,46.973 L203.039,46.798 C201.907,46.49 201.145,46.466 200.402,46.466 C199.908,46.466 195.578,46.569 195.578,50.166 L195.578,57.391 L190.227,57.391 L190.227,42.469 L195.578,42.469 L195.578,44.39 C197.102,42.856 199.032,42.106 201.446,42.106 C202.069,42.106 202.593,42.145 203.246,42.24 L203.676,42.297 L203.676,46.973 Z M219.011,57.435 L218.566,57.487 C217.462,57.614 216.575,57.702 215.167,57.702 C209.894,57.702 208.96,56.186 208.96,53.004 L208.96,46.104 L205.502,46.104 L205.502,42.469 L208.96,42.469 L208.96,38.168 L214.321,38.168 L214.321,42.469 L218.851,42.469 L218.851,46.104 L214.321,46.104 L214.321,51.952 C214.321,53.654 214.457,53.91 215.383,53.91 C216.182,53.91 216.937,53.897 217.696,53.88 L219.011,53.857 L219.011,57.435 Z M249.243,57.391 L246.785,57.391 L246.785,48.172 C246.785,45.853 245.103,44.578 242.058,44.578 C238.506,44.578 236.549,46.012 236.549,48.614 L236.549,57.391 L234.099,57.391 L234.099,47.936 C234.099,45.677 232.549,44.578 229.368,44.578 C225.92,44.578 223.863,46.183 223.863,48.876 L223.863,57.391 L221.403,57.391 L221.403,42.942 L223.863,42.942 L223.863,44.493 C225.262,43.244 227.33,42.52 229.62,42.52 C232.732,42.52 234.785,43.381 235.852,45.141 C237.182,43.424 239.3,42.52 242.028,42.52 C247.992,42.52 249.243,45.381 249.243,47.78 L249.243,57.391 Z M268.062,57.519 L265.609,57.519 L265.609,55.678 C264.507,56.782 262.559,57.936 259.247,57.936 C251.347,57.936 251.347,53.53 251.347,51.868 L251.347,43.072 L253.799,43.072 L253.799,51.818 C253.799,53.93 254.462,55.88 259.278,55.88 C263.95,55.88 265.609,53.479 265.609,51.425 L265.609,43.072 L268.062,43.072 L268.062,57.519 Z M277.975,57.805 C271.328,57.805 269.746,55.039 269.595,52.717 L269.557,52.179 L271.989,52.179 L272.045,52.618 C272.212,53.867 272.459,55.75 278.349,55.75 C283.181,55.75 283.736,54.348 283.736,53.293 C283.736,52.885 283.736,51.655 280.939,51.353 L275.274,50.718 C272.062,50.376 270.29,48.998 270.29,46.832 C270.29,46.113 270.641,42.52 277.556,42.52 C282.636,42.52 285.256,44.096 285.563,47.333 L285.613,47.886 L283.155,47.886 L283.11,47.429 C282.959,45.949 282.171,44.578 277.496,44.578 C274.477,44.578 272.742,45.372 272.742,46.756 C272.742,47.392 273.031,48.27 275.538,48.535 L280.665,49.108 C283.04,49.38 286.182,50.104 286.182,53.293 C286.182,55.35 284.761,57.805 277.975,57.805 L277.975,57.805 Z M296.684,55.987 C301.327,55.987 302.537,53.613 303.052,52.517 L305.589,52.517 L305.461,52.84 C304.06,56.337 301.138,58.039 296.526,58.039 C290.764,58.039 287.039,54.999 287.039,50.292 C287.039,47.687 289.03,42.756 296.549,42.756 C302.177,42.756 305.862,45.853 305.935,50.656 L305.945,51.167 L289.541,51.167 C289.892,54.154 292.578,55.987 296.684,55.987 L296.684,55.987 Z M321.991,19.289 L321.991,13.741 C321.991,10.846 324.15,8.842 328.259,8.842 C331.259,8.842 333.049,10.316 333.049,13.059 L333.049,19.289 L333.049,28.805 L321.991,28.805 L321.991,19.289 Z M324.434,57.391 L321.974,57.391 L321.974,55.556 C320.869,56.658 318.926,57.805 315.611,57.805 C307.711,57.805 307.711,53.401 307.711,51.74 L307.711,42.942 L310.164,42.942 L310.164,51.689 C310.164,53.8 310.829,55.75 315.643,55.75 C320.317,55.75 321.974,53.35 321.974,51.295 L321.974,42.942 L324.434,42.942 L324.434,57.391 Z M355.129,57.391 L352.682,57.391 L352.682,48.172 C352.682,45.853 351.005,44.578 347.956,44.578 C344.402,44.578 342.446,46.012 342.446,48.614 L342.446,57.391 L339.988,57.391 L339.988,47.936 C339.988,45.677 338.44,44.578 335.266,44.578 C331.867,44.578 329.758,46.226 329.758,48.876 L329.758,57.391 L327.3,57.391 L327.3,42.942 L329.758,42.942 L329.758,44.493 C331.162,43.241 333.222,42.52 335.512,42.52 C338.622,42.52 340.675,43.384 341.756,45.145 C343.086,43.427 345.195,42.52 347.925,42.52 C353.886,42.52 355.129,45.381 355.129,47.78 L355.129,57.391 Z M355.26,19.289 L355.26,28.805 L344.201,28.805 L344.201,19.289 L344.201,13.741 C344.201,10.846 346.357,8.842 350.465,8.842 C353.467,8.842 355.26,10.316 355.26,13.059 L355.26,19.289 Z" id="Fill-51" fill="#000000" mask="url(#mask-2)"></path>
                <path d="M61.5799,44.5196 C58.4289,44.5196 54.7459,45.8776 54.7459,49.6946 C54.7459,53.1876 57.2319,55.1116 61.7409,55.1116 C66.0749,55.1116 68.6659,53.0776 68.6659,49.6646 C68.6659,46.4466 66.0179,44.5196 61.5799,44.5196" id="Fill-52" fill="#000000" mask="url(#mask-2)"></path>
                <path d="M296.3936,44.8115 C292.8626,44.8115 290.4356,46.3685 289.6366,49.1085 L303.1766,49.1085 C302.4626,46.3685 300.0286,44.8115 296.3936,44.8115" id="Fill-53" fill="#000000" mask="url(#mask-2)"></path>
                <path d="M154.8274,44.5783 C151.3014,44.5783 148.8744,46.1373 148.0674,48.8763 L161.6124,48.8763 C160.8994,46.1373 158.4624,44.5783 154.8274,44.5783" id="Fill-54" fill="#000000" mask="url(#mask-2)"></path>
            </g>
        </g>
    </g>
</svg>